<svg xmlns="http://www.w3.org/2000/svg" viewBox="0 0 843 836" width="256" height="256">
  <g fill="#2F4A3E" stroke="none" fill-rule="nonzero">
    <path d="M 177.0 356.5 L 174.5 354.0 L 179.5 334.0 L 194.5 299.0 L 209.5 277.0 L 232.5 253.0 L 197.5 207.0 L 197.0 198.5 L 205.0 197.5 L 212.0 200.5 L 251.0 233.5 L 280.0 208.5 L 302.0 194.5 L 336.0 180.5 L 360.5 176.0 L 355.0 198.5 L 302.0 221.5 L 264.5 247.0 L 328.5 314.0 L 332.0 324.5 L 319.0 333.5 L 310.0 334.5 L 246.0 266.5 L 222.5 300.0 L 200.5 346.0 L 177.0 356.5 Z"/>
    <path d="M 491.0 658.5 L 488.5 657.0 L 490.0 637.5 L 534.0 617.5 L 584.5 580.0 L 529.5 523.0 L 521.5 509.0 L 541.0 500.5 L 549.0 502.5 L 604.0 559.5 L 626.5 527.0 L 647.5 477.0 L 670.0 470.5 L 664.5 495.0 L 651.5 525.0 L 636.5 550.0 L 616.5 574.0 L 648.5 612.0 L 649.5 625.0 L 645.0 628.5 L 633.0 625.5 L 596.0 593.5 L 549.0 631.5 L 520.0 647.5 L 491.0 658.5 Z"/>
    <path d="M 428.0 412.5 L 400.5 377.0 L 365.5 339.0 L 374.5 264.0 L 410.5 38.0 L 415.5 25.0 L 424.0 19.5 L 429.0 19.5 L 432.5 28.0 L 445.5 136.0 L 443.5 362.0 L 473.5 336.0 L 473.5 349.0 L 470.5 355.0 L 428.0 412.5 Z"/>
    <path d="M 421.0 816.5 L 414.0 816.5 L 410.5 807.0 L 393.5 698.0 L 380.5 590.0 L 375.5 502.0 L 368.0 505.5 L 365.5 503.0 L 425.0 418.5 L 455.5 462.0 L 482.5 493.0 L 449.5 707.0 L 429.5 805.0 L 421.0 816.5 Z"/>
    <path d="M 352.0 473.5 L 335.0 465.5 L 214.0 451.5 L 35.0 422.5 L 25.0 419.5 L 19.5 409.0 L 33.0 399.5 L 156.0 383.5 L 269.0 372.5 L 364.0 370.5 L 418.5 413.0 L 388.0 437.5 L 352.0 473.5 Z"/>
    <path d="M 496.0 478.5 L 492.0 477.5 L 463.5 444.0 L 430.5 413.0 L 478.0 385.5 L 531.0 382.5 L 639.0 384.5 L 805.0 394.5 L 818.0 396.5 L 823.5 401.0 L 820.0 411.5 L 803.0 418.5 L 647.0 452.5 L 496.0 478.5 Z"/>
    <path d="M 668.0 354.5 L 642.5 349.0 L 628.5 316.0 L 600.0 272.5 L 526.0 349.5 L 518.0 350.5 L 503.0 346.5 L 501.5 338.0 L 514.5 318.0 L 597.0 235.5 L 634.0 203.5 L 648.0 199.5 L 651.5 202.0 L 649.5 213.0 L 613.5 257.0 L 636.5 285.0 L 651.5 309.0 L 662.5 333.0 L 668.0 354.5 Z"/>
    <path d="M 212.0 626.5 L 201.5 624.0 L 201.5 614.0 L 225.5 583.0 L 306.0 501.5 L 318.0 499.5 L 327.0 502.5 L 330.5 514.0 L 324.5 525.0 L 233.0 613.5 L 212.0 626.5 Z"/>
    <path d="M 572.0 242.5 L 520.0 207.5 L 480.0 187.5 L 479.5 174.0 L 521.0 185.5 L 561.0 207.5 L 586.5 229.0 L 572.0 242.5 Z"/>
    <path d="M 228.0 572.5 L 210.5 553.0 L 191.5 522.0 L 177.5 487.0 L 174.0 466.5 L 197.5 473.0 L 218.5 523.0 L 241.5 558.0 L 242.5 561.0 L 228.0 572.5 Z"/>
    <path d="M 365.0 661.5 L 340.0 653.5 L 301.0 633.5 L 278.0 617.5 L 263.5 603.0 L 279.0 592.5 L 321.0 619.5 L 359.0 636.5 L 365.0 661.5 Z"/>
  </g>
</svg>
